<svg xmlns="http://www.w3.org/2000/svg" version="1.1" xmlns:xlink="http://www.w3.org/1999/xlink" xmlns:svgjs="http://svgjs.dev/svgjs" width="1500" height="939" viewBox="0 0 1500 939"><g transform="matrix(1,0,0,1,-0.9090909090909918,-1.5145161290323017)"><svg viewBox="0 0 396 248" data-background-color="#ffffff" preserveAspectRatio="xMidYMid meet" height="939" width="1500" xmlns="http://www.w3.org/2000/svg" xmlns:xlink="http://www.w3.org/1999/xlink"><g id="tight-bounds" transform="matrix(1,0,0,1,0.2400000000000091,0.4000000000000057)"><svg viewBox="0 0 395.52 247.2" height="247.2" width="395.52"><g><svg></svg></g><g><svg viewBox="0 0 395.52 247.2" height="247.2" width="395.52"><g transform="matrix(1,0,0,1,75.54432,78.80891308900524)"><svg viewBox="0 0 244.43135999999998 89.58217382198951" height="89.58217382198951" width="244.43135999999998"><g><svg viewBox="0 0 244.43135999999998 89.58217382198951" height="89.58217382198951" width="244.43135999999998"><g><svg viewBox="0 0 244.43135999999998 89.58217382198951" height="89.58217382198951" width="244.43135999999998"><g id="textblocktransform"><svg viewBox="0 0 244.43135999999998 89.58217382198951" height="89.58217382198951" width="244.43135999999998" id="textblock"><g><svg viewBox="0 0 244.43135999999998 89.58217382198951" height="89.58217382198951" width="244.43135999999998"><g transform="matrix(1,0,0,1,0,0)"><svg width="244.43135999999998" viewBox="1.7999999999999998 -28 76.39 28" height="89.58217382198951" data-palette-color="#000000"><path d="M18-12Q18.2-11.2 18.2-10L18.2-10Q18.2-8.85 18-8L18-8Q18.2-7.2 18.2-6L18.2-6Q18.2-4.85 18-4L18-4 16-4Q16.2-3.2 16.2-2L16.2-2Q16.2-0.85 16 0L16 0 4 0Q3.8-0.85 3.8-2L3.8-2Q3.8-3.2 4-4L4-4 2-4Q1.8-4.85 1.8-6L1.8-6Q1.8-7.2 2-8L2-8 6-8Q6.2-7.2 6.2-6L6.2-6Q6.2-4.85 6-4L6-4 14-4Q13.8-4.85 13.8-6L13.8-6Q13.8-7.2 14-8L14-8Q13.8-8.85 13.8-10L13.8-10Q13.8-11.2 14-12L14-12 4-12Q3.8-12.85 3.8-14L3.8-14Q3.8-15.2 4-16L4-16 2-16Q1.8-16.85 1.8-18L1.8-18Q1.8-19.2 2-20L2-20Q1.8-20.85 1.8-22L1.8-22Q1.8-23.2 2-24L2-24 4-24Q3.8-24.85 3.8-26L3.8-26Q3.8-27.2 4-28L4-28 16-28Q16.2-27.2 16.2-26L16.2-26Q16.2-24.85 16-24L16-24 18-24Q18.2-23.2 18.2-22L18.2-22Q18.2-20.85 18-20L18-20 14-20Q13.8-20.85 13.8-22L13.8-22Q13.8-23.2 14-24L14-24 6-24Q6.2-23.2 6.2-22L6.2-22Q6.2-20.85 6-20L6-20Q6.2-19.2 6.2-18L6.2-18Q6.2-16.85 6-16L6-16 16-16Q16.2-15.2 16.2-14L16.2-14Q16.2-12.85 16-12L16-12 18-12ZM36-12L28-12Q28.2-11.2 28.2-10L28.2-10Q28.2-8.85 28-8L28-8Q28.2-7.2 28.2-6L28.2-6Q28.2-4.85 28-4L28-4 36-4Q36.2-3.2 36.2-2L36.2-2Q36.2-0.85 36 0L36 0 24 0Q23.8-0.85 23.8-2L23.8-2Q23.8-3.2 24-4L24-4Q23.8-4.85 23.8-6L23.8-6Q23.8-7.2 24-8L24-8Q23.8-8.85 23.8-10L23.8-10Q23.8-11.2 24-12L24-12Q23.8-12.85 23.8-14L23.8-14Q23.8-15.2 24-16L24-16Q23.8-16.85 23.8-18L23.8-18Q23.8-19.2 24-20L24-20Q23.8-20.85 23.8-22L23.8-22Q23.8-23.2 24-24L24-24Q23.8-24.85 23.8-26L23.8-26Q23.8-27.2 24-28L24-28 36-28Q36.2-27.2 36.2-26L36.2-26Q36.2-24.85 36-24L36-24 28-24Q28.2-23.2 28.2-22L28.2-22Q28.2-20.85 28-20L28-20Q28.2-19.2 28.2-18L28.2-18Q28.2-16.85 28-16L28-16 36-16Q36.2-15.2 36.2-14L36.2-14Q36.2-12.85 36-12L36-12ZM56.5-4L58-4Q58.2-3.2 58.2-2L58.2-2Q58.2-0.85 58 0L58 0 54 0Q53.8-0.85 53.8-2L53.8-2Q53.8-3.2 54-4L54-4 52.5-4Q52.3-4.85 52.3-6L52.3-6Q52.3-7.2 52.5-8L52.5-8 51-8Q50.8-8.85 50.8-10L50.8-10Q50.8-11.2 51-12L51-12 46-12Q46.2-11.2 46.2-10L46.2-10Q46.2-8.85 46-8L46-8Q46.2-7.2 46.2-6L46.2-6Q46.2-4.85 46-4L46-4Q46.2-3.2 46.2-2L46.2-2Q46.2-0.85 46 0L46 0 42 0Q41.8-0.85 41.8-2L41.8-2Q41.8-3.2 42-4L42-4Q41.8-4.85 41.8-6L41.8-6Q41.8-7.2 42-8L42-8Q41.8-8.85 41.8-10L41.8-10Q41.8-11.2 42-12L42-12Q41.8-12.85 41.8-14L41.8-14Q41.8-15.2 42-16L42-16Q41.8-16.85 41.8-18L41.8-18Q41.8-19.2 42-20L42-20Q41.8-20.85 41.8-22L41.8-22Q41.8-23.2 42-24L42-24Q41.8-24.85 41.8-26L41.8-26Q41.8-27.2 42-28L42-28 56-28Q56.2-27.2 56.2-26L56.2-26Q56.2-24.85 56-24L56-24 58-24Q58.2-23.2 58.2-22L58.2-22Q58.2-20.85 58-20L58-20 57-20Q57.2-19.2 57.2-18L57.2-18Q57.2-16.85 57-16L57-16 54-16Q54.2-15.2 54.2-14L54.2-14Q54.2-12.85 54-12L54-12 55-12Q55.2-11.2 55.2-10L55.2-10Q55.2-8.85 55-8L55-8 56.5-8Q56.7-7.2 56.7-6L56.7-6Q56.7-4.85 56.5-4L56.5-4ZM53-16Q52.8-16.85 52.8-18L52.8-18Q52.8-19.2 53-20L53-20Q52.8-20.85 52.8-22L52.8-22Q52.8-23.2 53-24L53-24 46-24Q46.2-23.2 46.2-22L46.2-22Q46.2-20.85 46-20L46-20Q46.2-19.2 46.2-18L46.2-18Q46.2-16.85 46-16L46-16 53-16ZM78.19-6Q78.19-4.85 77.99-4L77.99-4Q78.19-3.2 78.19-2L78.19-2Q78.19-0.85 77.99 0L77.99 0 73.99 0Q73.79-0.85 73.79-2L73.79-2Q73.79-3.2 73.99-4L73.99-4Q73.79-4.85 73.79-6L73.79-6Q73.79-7.2 73.99-8L73.99-8 65.99-8Q66.19-7.2 66.19-6L66.19-6Q66.19-4.85 65.99-4L65.99-4Q66.19-3.2 66.19-2L66.19-2Q66.19-0.85 65.99 0L65.99 0 61.99 0Q61.79-0.85 61.79-2L61.79-2Q61.79-3.2 61.99-4L61.99-4Q61.79-4.85 61.79-6L61.79-6Q61.79-7.2 61.99-8L61.99-8 63.49-8Q63.29-8.85 63.29-10L63.29-10Q63.29-11.2 63.49-12L63.49-12Q63.29-12.85 63.29-14L63.29-14Q63.29-15.2 63.49-16L63.49-16 64.49-16Q64.29-16.85 64.29-18L64.29-18Q64.29-19.2 64.49-20L64.49-20 65.99-20Q65.79-20.85 65.79-22L65.79-22Q65.79-23.2 65.99-24L65.99-24 66.99-24Q66.79-24.85 66.79-26L66.79-26Q66.79-27.2 66.99-28L66.99-28 72.99-28Q73.19-27.2 73.19-26L73.19-26Q73.19-24.85 72.99-24L72.99-24 73.99-24Q74.19-23.2 74.19-22L74.19-22Q74.19-20.85 73.99-20L73.99-20 75.49-20Q75.69-19.2 75.69-18L75.69-18Q75.69-16.85 75.49-16L75.49-16 76.49-16Q76.69-15.2 76.69-14L76.69-14Q76.69-12.85 76.49-12L76.49-12Q76.69-11.2 76.69-10L76.69-10Q76.69-8.85 76.49-8L76.49-8 77.99-8Q78.19-7.2 78.19-6L78.19-6ZM72.49-12Q72.29-12.85 72.29-14L72.29-14Q72.29-15.2 72.49-16L72.49-16 71.49-16Q71.29-16.85 71.29-18L71.29-18Q71.29-19.2 71.49-20L71.49-20 68.49-20Q68.69-19.2 68.69-18L68.69-18Q68.69-16.85 68.49-16L68.49-16 67.49-16Q67.69-15.2 67.69-14L67.69-14Q67.69-12.85 67.49-12L67.49-12 72.49-12Z" opacity="1" transform="matrix(1,0,0,1,0,0)" fill="#000000" class="wordmark-text-0" data-fill-palette-color="primary" id="text-0"></path></svg></g></svg></g></svg></g></svg></g></svg></g></svg></g><path d="M219.372 72.809L219.372 19.422 11.016 19.422 11.016 227.778 219.372 227.778 219.372 174.391 211.293 174.391 211.293 219.7 19.094 219.7 19.094 27.5 211.293 27.5 211.293 72.809Z" fill="#000000" stroke="transparent" data-fill-palette-color="tertiary"></path></svg></g><defs></defs></svg><rect width="395.52" height="247.2" fill="none" stroke="none" visibility="hidden"></rect></g></svg></g></svg>